# File created by Blade
# Date/Time:  Tue Jan 27 20:02:37 2015
# Frame Rate: 120.000 fps
#------------------------------------------------------
:FULLY-SPECIFIED
:DEGREES
2375
root 8.702183 32.720767 4.541583 3.460617 -28.393023 -17.955436
Spine 7.767851 18.330369 11.143081
Head 22.569224 -22.417431 -2.773552
LeftShoulder -16.285086 4.309471 27.212886
LeftArm -6.686202 -6.072961 -82.955746
LeftForeArm -17.821999 -0.000000 127.287361
LeftHand 9.937304 -0.000000 -21.557209
LeftHandThumb1 -26.253704 0.000000 33.147579
RightShoulder -17.007656 -18.488661 -22.395045
RightArm 6.711727 -12.813653 86.498879
RightForeArm -12.875411 -0.000000 6.019872
RightHand 19.504664 -0.000000 7.496439
RightHandThumb1 -24.326973 -0.000000 -32.862282
LeftUpLeg 10.623539 19.198108 4.100995
LeftLeg -2.547196 -0.000000 0.000000
LeftFoot -23.772176 28.629447 -16.316597
LeftToeBase 18.726847 -0.000000 -0.000000
RightUpLeg -25.859994 -38.735963 -27.008260
RightLeg 3.076319 -0.000000 -0.000000
RightFoot 27.576298 -26.208316 18.410985
RightToeBase 12.791763 -0.000000 -0.000000
2376
root 8.704962 32.727310 4.515350 3.418238 -28.303101 -17.994203
Spine 7.931252 18.110651 11.262240
Head 22.764357 -22.384841 -3.085880
LeftShoulder -16.338494 4.288545 27.104863
LeftArm -6.677617 -6.064082 -82.981453
LeftForeArm -17.808894 0.000000 127.329204
LeftHand 9.899152 -0.000000 -21.646347
LeftHandThumb1 -26.253704 0.000000 33.147579
RightShoulder -16.932998 -18.401094 -22.483882
RightArm 6.659162 -12.913487 86.496090
RightForeArm -12.971758 -0.000000 6.056656
RightHand 19.446563 -0.000000 7.680199
RightHandThumb1 -24.326973 -0.000000 -32.862282
LeftUpLeg 10.544266 19.142663 4.168343
LeftLeg -2.377710 -0.000000 0.000000
LeftFoot -23.785838 28.636331 -16.269621
LeftToeBase 18.365057 -0.000000 -0.000000
RightUpLeg -26.423276 -39.420661 -26.797103
RightLeg 3.107392 -0.000000 -0.000000
RightFoot 27.440315 -25.838971 18.736693
RightToeBase 13.610964 -0.000000 -0.000000
2377
root 8.710481 32.733860 4.481264 3.450184 -28.221099 -18.004954
Spine 8.001517 17.940914 11.290570
Head 22.899278 -22.347659 -3.232058
LeftShoulder -16.392996 4.303533 27.043596
LeftArm -6.621321 -6.051172 -83.059617
LeftForeArm -18.046224 -0.000000 127.346508
LeftHand 9.855488 0.000000 -21.721743
LeftHandThumb1 -26.253704 0.000000 33.147579
RightShoulder -16.887387 -18.334118 -22.496184
RightArm 6.665888 -13.101230 86.431777
RightForeArm -12.989558 -0.000000 6.029493
RightHand 19.429390 -0.000000 7.738154
RightHandThumb1 -24.326973 -0.000000 -32.862282
LeftUpLeg 10.335918 19.076804 4.178453
LeftLeg -2.175017 -0.000000 0.000000
LeftFoot -23.850475 28.579423 -16.323724
LeftToeBase 18.372647 -0.000000 -0.000000
RightUpLeg -27.350470 -40.195358 -26.439169
RightLeg 3.790830 -0.000000 -0.000000
RightFoot 28.318525 -24.793328 17.941863
RightToeBase 12.398146 -0.000000 -0.000000
2378
root 8.715445 32.741996 4.448800 3.474621 -28.150215 -18.037813
Spine 8.100465 17.814764 11.353832
Head 22.997059 -22.358831 -3.320308
LeftShoulder -16.397796 4.229400 26.989515
LeftArm -6.659841 -6.049583 -83.068266
LeftForeArm -17.974547 -0.000000 127.380527
LeftHand 9.951333 -0.000000 -21.947377
LeftHandThumb1 -26.253704 0.000000 33.147579
RightShoulder -16.898089 -18.298142 -22.476742
RightArm 6.725315 -13.145543 86.343614
RightForeArm -13.200020 -0.000000 5.962573
RightHand 19.489504 -0.000000 7.975452
RightHandThumb1 -24.326973 -0.000000 -32.862282
LeftUpLeg 10.143688 18.947373 4.204307
LeftLeg -1.962894 -0.000000 0.000000
LeftFoot -23.939367 28.590317 -16.411795
LeftToeBase 18.356417 -0.000000 -0.000000
RightUpLeg -28.337470 -40.880272 -26.088443
RightLeg 4.867406 -0.000000 -0.000000
RightFoot 29.290276 -23.782646 17.209993
RightToeBase 10.763208 -0.000000 -0.000000
2379
root 8.714802 32.755519 4.412926 3.493432 -28.027879 -18.138489
Spine 8.245771 17.660919 11.484266
Head 23.026309 -22.361872 -3.315279
LeftShoulder -16.378873 4.167506 26.950175
LeftArm -6.671673 -6.033515 -83.122562
LeftForeArm -17.875796 -0.000000 127.410343
LeftHand 9.991054 -0.000000 -21.999526
LeftHandThumb1 -26.253704 0.000000 33.147579
RightShoulder -16.948119 -18.351388 -22.394987
RightArm 6.910987 -13.214138 86.203721
RightForeArm -13.249215 -0.000000 5.874967
RightHand 19.396740 -0.000000 8.002708
RightHandThumb1 -24.326973 -0.000000 -32.862282
LeftUpLeg 9.959821 18.717003 4.303880
LeftLeg -1.722519 -0.000000 0.000000
LeftFoot -24.029436 28.643493 -16.474855
LeftToeBase 18.616321 -0.000000 -0.000000
RightUpLeg -29.173408 -41.551236 -25.698722
RightLeg 5.871500 -0.000000 -0.000000
RightFoot 30.087556 -23.026479 16.634681
RightToeBase 10.651708 -0.000000 -0.000000
2380
root 8.709985 32.771027 4.387910 3.425085 -27.901589 -18.229823
Spine 8.457372 17.501795 11.603777
Head 23.055832 -22.416311 -3.254558
LeftShoulder -16.364348 4.151378 26.945876
LeftArm -6.628407 -5.989246 -83.219426
LeftForeArm -17.712388 -0.000000 127.435692
LeftHand 9.972813 -0.000000 -21.968542
LeftHandThumb1 -26.253704 0.000000 33.147579
RightShoulder -16.974579 -18.320165 -22.310719
RightArm 6.973892 -13.310457 86.063301
RightForeArm -13.188384 -0.000000 5.784263
RightHand 19.495398 -0.000000 7.910905
RightHandThumb1 -24.326973 -0.000000 -32.862282
LeftUpLeg 9.925619 18.457726 4.429097
LeftLeg -1.570396 -0.000000 0.000000
LeftFoot -24.196228 28.691974 -16.717825
LeftToeBase 18.817640 -0.000000 -0.000000
RightUpLeg -29.758834 -42.158603 -25.420339
RightLeg 6.649575 -0.000000 -0.000000
RightFoot 30.253990 -22.516638 16.858668
RightToeBase 12.217348 -0.000000 -0.000000
2381
root 8.697668 32.787582 4.370401 3.364417 -27.832001 -18.360161
Spine 8.636974 17.411060 11.746246
Head 23.140865 -22.438887 -3.108093
LeftShoulder -16.323148 4.134770 26.980153
LeftArm -6.621351 -5.924323 -83.300312
LeftForeArm -17.506280 0.000000 127.423577
LeftHand 10.017903 -0.000000 -21.856762
LeftHandThumb1 -26.253704 0.000000 33.147579
RightShoulder -16.984301 -18.372741 -22.243202
RightArm 7.068178 -13.292863 85.968337
RightForeArm -13.166920 -0.000000 5.692000
RightHand 19.461227 -0.000000 7.834933
RightHandThumb1 -24.326973 -0.000000 -32.862282
LeftUpLeg 9.961178 18.331042 4.603373
LeftLeg -1.455703 -0.000000 0.000000
LeftFoot -24.172777 28.806579 -16.658170
LeftToeBase 18.704939 -0.000000 -0.000000
RightUpLeg -30.146180 -42.613207 -25.138624
RightLeg 7.026420 -0.000000 -0.000000
RightFoot 30.361983 -21.947823 16.903698
RightToeBase 12.527417 -0.000000 -0.000000
2382
root 8.676564 32.810383 4.356625 3.277144 -27.726789 -18.602913
Spine 8.878710 17.252779 12.009789
Head 23.281516 -22.441376 -2.980507
LeftShoulder -16.296027 4.119237 27.009875
LeftArm -6.614688 -5.843715 -83.383885
LeftForeArm -17.354812 -0.000000 127.396125
LeftHand 10.034443 -0.000000 -21.792039
LeftHandThumb1 -26.253704 0.000000 33.147579
RightShoulder -16.944745 -18.426541 -22.179887
RightArm 7.156444 -13.210892 85.857728
RightForeArm -13.161959 -0.000000 5.606016
RightHand 19.489028 -0.000000 7.696748
RightHandThumb1 -24.326973 -0.000000 -32.862282
LeftUpLeg 10.116837 18.204627 4.917749
LeftLeg -1.416490 -0.000000 0.000000
LeftFoot -24.214934 28.915329 -16.706583
LeftToeBase 18.578321 -0.000000 -0.000000
RightUpLeg -30.068247 -42.799367 -24.987780
RightLeg 6.935880 -0.000000 -0.000000
RightFoot 30.401411 -21.608678 16.780110
RightToeBase 12.292973 -0.000000 -0.000000
2383
root 8.649710 32.834183 4.349082 3.130698 -27.567189 -18.878732
Spine 9.184527 17.083299 12.344536
Head 23.394142 -22.507665 -2.858196
LeftShoulder -16.235298 4.075373 27.029755
LeftArm -6.576484 -5.760786 -83.440040
LeftForeArm -17.276533 -0.000000 127.318225
LeftHand 10.097022 -0.000000 -21.861305
LeftHandThumb1 -26.253704 0.000000 33.147579
RightShoulder -16.954528 -18.527902 -22.148455
RightArm 7.228795 -13.111733 85.785335
RightForeArm -13.214659 -0.000000 5.579343
RightHand 19.571801 -0.000000 7.628689
RightHandThumb1 -24.326973 -0.000000 -32.862282
LeftUpLeg 10.369689 18.090223 5.302776
LeftLeg -1.410131 -0.000000 0.000000
LeftFoot -24.239189 28.975965 -16.679221
LeftToeBase 18.705501 -0.000000 -0.000000
RightUpLeg -29.549507 -42.776113 -25.053007
RightLeg 6.440115 -0.000000 -0.000000
RightFoot 30.451483 -21.434964 16.364563
RightToeBase 12.475712 -0.000000 -0.000000
2384
root 8.626526 32.854348 4.342707 2.996803 -27.411617 -19.068362
Spine 9.397816 16.920032 12.540086
Head 23.535215 -22.511696 -2.633545
LeftShoulder -16.184352 4.046217 27.082675
LeftArm -6.534882 -5.657302 -83.471678
LeftForeArm -17.238755 -0.000000 127.245698
LeftHand 10.120252 0.000000 -21.743191
LeftHandThumb1 -26.253704 0.000000 33.147579
RightShoulder -16.925868 -18.611882 -22.115071
RightArm 7.237655 -13.064580 85.727066
RightForeArm -13.159906 -0.000000 5.647482
RightHand 19.379353 -0.000000 7.473716
RightHandThumb1 -24.326973 -0.000000 -32.862282
LeftUpLeg 10.605156 18.036428 5.607210
LeftLeg -1.466870 -0.000000 0.000000
LeftFoot -24.178250 28.923555 -16.642185
LeftToeBase 18.719612 -0.000000 -0.000000
RightUpLeg -28.937487 -42.552981 -25.299859
RightLeg 5.817193 -0.000000 -0.000000
RightFoot 30.235626 -21.527421 16.122962
RightToeBase 12.833823 -0.000000 -0.000000
